<svg width="23" height="23" viewBox="0 0 23 23" fill="none" xmlns="http://www.w3.org/2000/svg">
<path d="M8.20261 20.987C7.94884 20.987 7.68599 20.9236 7.45035 20.7967C6.93375 20.5248 6.61655 19.981 6.61655 19.4009V18.114C3.87947 17.833 2.08496 15.8209 2.08496 12.9389V7.501C2.08496 4.38327 4.17856 2.28967 7.29629 2.28967H16.3595C19.4772 2.28967 21.5708 4.38327 21.5708 7.501V12.9389C21.5708 16.0566 19.4772 18.1502 16.3595 18.1502H12.9426L9.08171 20.7242C8.81888 20.8964 8.51076 20.987 8.20261 20.987ZM7.29629 3.64008C4.95799 3.64008 3.44444 5.15363 3.44444 7.49193V12.9299C3.44444 15.2682 4.95799 16.7817 7.29629 16.7817C7.66788 16.7817 7.97603 17.0899 7.97603 17.4615V19.3919C7.97603 19.5098 8.04854 19.5641 8.09385 19.5913C8.13917 19.6185 8.22981 19.6457 8.32951 19.5822L12.3626 16.8996C12.4714 16.8271 12.6073 16.7817 12.7433 16.7817H16.3685C18.7068 16.7817 20.2204 15.2682 20.2204 12.9299V7.49193C20.2204 5.15363 18.7068 3.64008 16.3685 3.64008H7.29629V3.64008Z" fill="#7B4FFF"/>
<path d="M11.8278 11.7336C11.4562 11.7336 11.148 11.4254 11.148 11.0538V10.8635C11.148 9.8122 11.9184 9.29559 12.2084 9.0962C12.5437 8.86962 12.6525 8.71555 12.6525 8.47991C12.6525 8.02675 12.2809 7.65513 11.8278 7.65513C11.3746 7.65513 11.003 8.02675 11.003 8.47991C11.003 8.8515 10.6949 9.15965 10.3233 9.15965C9.9517 9.15965 9.64355 8.8515 9.64355 8.47991C9.64355 7.27451 10.6224 6.29565 11.8278 6.29565C13.0332 6.29565 14.012 7.27451 14.012 8.47991C14.012 9.51311 13.2507 10.0297 12.9697 10.22C12.6163 10.4557 12.5075 10.6098 12.5075 10.8635V11.0538C12.5075 11.4345 12.1993 11.7336 11.8278 11.7336Z" fill="#7B4FFF"/>
<path d="M11.8282 13.9903C11.4475 13.9903 11.1484 13.6822 11.1484 13.3106C11.1484 12.939 11.4566 12.6309 11.8282 12.6309C12.1998 12.6309 12.5079 12.939 12.5079 13.3106C12.5079 13.6822 12.2088 13.9903 11.8282 13.9903Z" fill="#7B4FFF"/>
</svg>
